<?xml version="1.0" encoding="UTF-8"?>
<svg xmlns="http://www.w3.org/2000/svg" id="Ebene_1" data-name="Ebene 1" viewBox="0 0 1332.86 401.45">
  <defs>
    <style>.cls-1{fill:#fff;}.cls-2{fill:#009ed7;}</style>
  </defs>
  <path class="cls-1" d="M9.3,346.43a4.56,4.56,0,0,1-4.65,4.65A4.56,4.56,0,0,1,0,346.43a4.88,4.88,0,0,1,1.34-3.53,4.43,4.43,0,0,1,3.31-1.37A4.44,4.44,0,0,1,8,342.9,4.88,4.88,0,0,1,9.3,346.43Zm-8,12.83h.52a3.26,3.26,0,0,0,.47,0,3.78,3.78,0,0,1,.56,0,6.67,6.67,0,0,1,4.09,1.24c1.12.84,1.68,2.34,1.68,4.52v27.47a6.28,6.28,0,0,0,.73,3.52c.49.69,1.62,1,3.4,1v3.1a12.41,12.41,0,0,1-2.11.43,21.33,21.33,0,0,1-2.62.17,7.85,7.85,0,0,1-3.84-.77,5,5,0,0,1-2-2.07A7.86,7.86,0,0,1,1.42,395c-.08-1.07-.13-2.11-.13-3.15Z" transform="translate(0 0)"></path>
  <path class="cls-1" d="M25.83,359.43a6.7,6.7,0,0,1,3.57,1,4.52,4.52,0,0,1,1.94,3.4,18.3,18.3,0,0,1,5.38-3.52,19.17,19.17,0,0,1,8.05-1.56c3.9,0,6.89.87,8.95,2.59a11.83,11.83,0,0,1,4.05,6.46,19.59,19.59,0,0,1,.52,3.83c.05,1.4.08,2.77.08,4.09v24.45H51.05V376c0-1.09,0-2.13,0-3.14a10,10,0,0,0-.47-2.8,5.72,5.72,0,0,0-2.5-3.44,10.55,10.55,0,0,0-5.59-1.21,14,14,0,0,0-7.84,1.94q-2.93,1.94-2.93,4.18v28.67H24.37V359.52h.42l.48,0A3.87,3.87,0,0,1,25.83,359.43Z" transform="translate(0 0)"></path>
  <path class="cls-1" d="M74.81,359.43a6.76,6.76,0,0,1,3.58,1,4.55,4.55,0,0,1,1.94,3.4,18.3,18.3,0,0,1,5.38-3.52,19.11,19.11,0,0,1,8.05-1.56c3.9,0,6.88.87,8.95,2.59a11.88,11.88,0,0,1,4,6.46,18.86,18.86,0,0,1,.52,3.83c.06,1.4.09,2.77.09,4.09v24.45H100V376c0-1.09,0-2.13,0-3.14a9.66,9.66,0,0,0-.48-2.8A5.66,5.66,0,0,0,97,366.58a10.59,10.59,0,0,0-5.6-1.21,14,14,0,0,0-7.83,1.94q-2.92,1.94-2.93,4.18v28.67H73.35V359.52h.43l.48,0A3.62,3.62,0,0,1,74.81,359.43Z" transform="translate(0 0)"></path>
  <path class="cls-1" d="M158,379.75a31.81,31.81,0,0,1-1,8.14,19.87,19.87,0,0,1-3.31,6.93,16.66,16.66,0,0,1-5.9,4.82,19.58,19.58,0,0,1-8.78,1.81,20.11,20.11,0,0,1-8.74-1.72,15.77,15.77,0,0,1-5.81-4.65,18.93,18.93,0,0,1-3.27-6.85,32,32,0,0,1-1-8.22,27.17,27.17,0,0,1,1.21-8.18,19.36,19.36,0,0,1,3.61-6.76,17.71,17.71,0,0,1,6-4.6,19,19,0,0,1,8.39-1.73,19.49,19.49,0,0,1,8.61,1.73,16.24,16.24,0,0,1,5.77,4.6,19,19,0,0,1,3.27,6.68A30.19,30.19,0,0,1,158,379.75Zm-7.66,0a29.32,29.32,0,0,0-.48-5.29,14.9,14.9,0,0,0-1.68-4.74,9.38,9.38,0,0,0-3.37-3.4,10.87,10.87,0,0,0-5.62-1.29,10.72,10.72,0,0,0-5.49,1.29,10,10,0,0,0-3.5,3.4,15.14,15.14,0,0,0-1.86,4.74,25.48,25.48,0,0,0-.55,5.29,31.43,31.43,0,0,0,.47,5.42,14.5,14.5,0,0,0,1.77,5,11,11,0,0,0,3.46,3.61,9.85,9.85,0,0,0,5.53,1.42,10.47,10.47,0,0,0,5.7-1.42,10,10,0,0,0,3.46-3.61,16,16,0,0,0,1.68-5A31.45,31.45,0,0,0,150.32,379.75Z" transform="translate(0 0)"></path>
  <path class="cls-1" d="M187,400.5h-7.49l-15.16-40.38a11.3,11.3,0,0,1,3.88-.69,4.56,4.56,0,0,1,3.83,1.6,14.61,14.61,0,0,1,2.19,4.6L183.47,393l9.38-27a18.74,18.74,0,0,1,2.24-4.81,4.48,4.48,0,0,1,4-1.73,8.06,8.06,0,0,1,1.94.22,5.54,5.54,0,0,1,1.5.56Z" transform="translate(0 0)"></path>
  <path class="cls-1" d="M241.32,390.77a24.23,24.23,0,0,0,.17,3.23,3.35,3.35,0,0,0,.65,1.72,2.19,2.19,0,0,0,1.29.73,10.18,10.18,0,0,0,2.11.17v3.45a12.64,12.64,0,0,1-1.9.43,15.83,15.83,0,0,1-2.32.17,9.92,9.92,0,0,1-4.71-1.07,4.68,4.68,0,0,1-2.35-3.83,19.63,19.63,0,0,1-5.15,3.65,17.57,17.57,0,0,1-7.89,1.51,20,20,0,0,1-4.51-.52,10.76,10.76,0,0,1-4.12-1.89,10.57,10.57,0,0,1-3-3.7,12.78,12.78,0,0,1-1.21-5.94,11.32,11.32,0,0,1,2.28-7.32,16.23,16.23,0,0,1,5.62-4.48,25.44,25.44,0,0,1,7.16-2.24,55.47,55.47,0,0,1,7-.68h1.8a16,16,0,0,1,1.8.08V373a8.48,8.48,0,0,0-1.85-5.9c-1.24-1.34-3.6-2-7.1-2a18.93,18.93,0,0,0-6.55,1,23.43,23.43,0,0,0-5.16,2.71h-.86a12.77,12.77,0,0,1-1.16-2.41,6.33,6.33,0,0,1-.48-2.06,2.72,2.72,0,0,1,1.38-2.12,14.47,14.47,0,0,1,3.57-1.76,27.32,27.32,0,0,1,4.87-1.2,32.53,32.53,0,0,1,5.25-.44,24.25,24.25,0,0,1,7.33.95,11.32,11.32,0,0,1,4.77,2.84,10.55,10.55,0,0,1,2.57,4.74,26.17,26.17,0,0,1,.74,6.54Zm-7.23-11H231.6a46,46,0,0,0-5.57.35,20,20,0,0,0-5.14,1.29,9.78,9.78,0,0,0-3.77,2.62,6.54,6.54,0,0,0-1.46,4.44A7.2,7.2,0,0,0,217.2,393q1.55,2,5.75,2a14.13,14.13,0,0,0,4.24-.64,16.62,16.62,0,0,0,3.55-1.6,9.33,9.33,0,0,0,2.45-2.07,3.46,3.46,0,0,0,.9-2.15Z" transform="translate(0 0)"></path>
  <path class="cls-1" d="M257.42,395a12.24,12.24,0,0,1-.73-3.57c-.09-1.29-.13-2.57-.13-3.83v-40.3h.51a3.28,3.28,0,0,0,.48,0,3.69,3.69,0,0,1,.56,0,6.94,6.94,0,0,1,4.05,1.2q1.71,1.2,1.71,4.36v6.84H276.7v6.28H263.87V388.1q0,7.06,5.6,7.06a7,7,0,0,0,2.59-.47,10.89,10.89,0,0,0,2.15-1.12,13.59,13.59,0,0,0,1.59-1.25,6.77,6.77,0,0,0,.82-.86,24.07,24.07,0,0,1,1.76,2.49,4.51,4.51,0,0,1,.73,2.33,2.64,2.64,0,0,1-.77,1.68,8.2,8.2,0,0,1-2.15,1.68,14.31,14.31,0,0,1-3.4,1.29,18.15,18.15,0,0,1-4.44.52,13.07,13.07,0,0,1-7.14-1.72A9.35,9.35,0,0,1,257.42,395Z" transform="translate(0 0)"></path>
  <path class="cls-1" d="M297.53,346.43a4.65,4.65,0,1,1-9.29,0,4.87,4.87,0,0,1,1.33-3.53,4.7,4.7,0,0,1,6.63,0A4.87,4.87,0,0,1,297.53,346.43Zm-8,12.83h.52a3.26,3.26,0,0,0,.47,0,3.78,3.78,0,0,1,.56,0,6.67,6.67,0,0,1,4.09,1.24c1.12.84,1.68,2.34,1.68,4.52v27.47a6.28,6.28,0,0,0,.73,3.52c.49.69,1.62,1,3.4,1v3.1a12.41,12.41,0,0,1-2.11.43,21.36,21.36,0,0,1-2.63.17,7.81,7.81,0,0,1-3.83-.77,4.92,4.92,0,0,1-2-2.07,7.67,7.67,0,0,1-.77-2.88c-.09-1.07-.13-2.11-.13-3.15Z" transform="translate(0 0)"></path>
  <path class="cls-1" d="M330.16,400.5h-7.49l-15.15-40.38a11.22,11.22,0,0,1,3.88-.69,4.55,4.55,0,0,1,3.83,1.6,14.61,14.61,0,0,1,2.19,4.6L326.64,393,336,366a18.74,18.74,0,0,1,2.24-4.81,4.48,4.48,0,0,1,4-1.73,7.92,7.92,0,0,1,1.93.22,5.49,5.49,0,0,1,1.51.56Z" transform="translate(0 0)"></path>
  <path class="cls-1" d="M372.44,395.16a16,16,0,0,0,4.34-.52,13.25,13.25,0,0,0,3.19-1.29,14.18,14.18,0,0,0,2.28-1.59,16.19,16.19,0,0,0,1.55-1.5,17.32,17.32,0,0,1,1.68,2.58,5.17,5.17,0,0,1,.73,2.15,2.84,2.84,0,0,1-.43,1.44,5.52,5.52,0,0,1-1.46,1.52,17.38,17.38,0,0,1-5.09,2.49,26.83,26.83,0,0,1-15.1-.15,16.32,16.32,0,0,1-6.27-3.75,17.73,17.73,0,0,1-4.26-6.76,29,29,0,0,1-1.57-10.2,24.88,24.88,0,0,1,1.6-9.38,18.63,18.63,0,0,1,4.17-6.5,16.12,16.12,0,0,1,5.9-3.75,19.91,19.91,0,0,1,6.84-1.21,17.62,17.62,0,0,1,7.53,1.47,14.27,14.27,0,0,1,5.13,3.91,16.43,16.43,0,0,1,2.92,5.69,23.23,23.23,0,0,1,.95,6.67c0,.8,0,1.62,0,2.45a19.11,19.11,0,0,1-.22,2.37H359.7A16.65,16.65,0,0,0,363,391.36Q366.06,395.16,372.44,395.16Zm7.31-19.37a18.22,18.22,0,0,0-.47-4.3A9.51,9.51,0,0,0,377.7,368a7.75,7.75,0,0,0-3-2.37,10.66,10.66,0,0,0-4.5-.86,9.83,9.83,0,0,0-7.33,2.93,12.21,12.21,0,0,0-3.21,8.09Z" transform="translate(0 0)"></path>
  <path class="cls-1" d="M436.83,395.16a11.28,11.28,0,0,0,4.18-.73,16,16,0,0,0,5.9-4.09,21.57,21.57,0,0,1,1.76,2.11,4.46,4.46,0,0,1,1.08,2.63c0,.81-.61,1.74-1.81,2.79a13.5,13.5,0,0,1-4.69,2.53,23.1,23.1,0,0,1-7.45,1.05,26.66,26.66,0,0,1-6.07-.78,15.5,15.5,0,0,1-6.22-3.1,18.33,18.33,0,0,1-4.91-6.5q-2-4.17-2-11.06a23.22,23.22,0,0,1,2.09-10.5,18.82,18.82,0,0,1,5.12-6.5,18.42,18.42,0,0,1,6.44-3.32,22.7,22.7,0,0,1,6-.95,22.28,22.28,0,0,1,5.55.64A18.7,18.7,0,0,1,446,361a9.6,9.6,0,0,1,2.71,2.09,3.27,3.27,0,0,1,1,2.12,5.08,5.08,0,0,1-.69,2.33,21.58,21.58,0,0,1-1.37,2.24h-1a17.13,17.13,0,0,0-3.79-3.23,11.41,11.41,0,0,0-6.29-1.51,12.72,12.72,0,0,0-5.59,1.12,10.21,10.21,0,0,0-3.83,3.14A13.3,13.3,0,0,0,425,374a23.57,23.57,0,0,0-.68,5.82,24.9,24.9,0,0,0,.68,6,13.53,13.53,0,0,0,2.2,4.86,10.59,10.59,0,0,0,3.91,3.27A12.7,12.7,0,0,0,436.83,395.16Z" transform="translate(0 0)"></path>
  <path class="cls-1" d="M495.29,379.75a31.81,31.81,0,0,1-1,8.14,19.71,19.71,0,0,1-3.32,6.93,16.49,16.49,0,0,1-5.9,4.82,19.52,19.52,0,0,1-8.78,1.81,20.1,20.1,0,0,1-8.73-1.72,15.88,15.88,0,0,1-5.82-4.65,19.26,19.26,0,0,1-3.27-6.85,32,32,0,0,1-1-8.22,27.48,27.48,0,0,1,1.2-8.18,19.55,19.55,0,0,1,3.62-6.76,17.71,17.71,0,0,1,6-4.6,19.07,19.07,0,0,1,8.39-1.73,19.52,19.52,0,0,1,8.61,1.73,16.12,16.12,0,0,1,5.76,4.6,18.8,18.8,0,0,1,3.28,6.68A30.19,30.19,0,0,1,495.29,379.75Zm-7.66,0a29.32,29.32,0,0,0-.48-5.29,14.67,14.67,0,0,0-1.68-4.74,9.46,9.46,0,0,0-3.37-3.4,10.9,10.9,0,0,0-5.62-1.29,10.72,10.72,0,0,0-5.49,1.29,9.92,9.92,0,0,0-3.5,3.4,14.9,14.9,0,0,0-1.86,4.74,25.49,25.49,0,0,0-.56,5.29,31.45,31.45,0,0,0,.48,5.42,14.3,14.3,0,0,0,1.77,5,10.85,10.85,0,0,0,3.46,3.61,9.83,9.83,0,0,0,5.53,1.42,10.47,10.47,0,0,0,5.7-1.42,10,10,0,0,0,3.46-3.61,15.78,15.78,0,0,0,1.68-5A31.45,31.45,0,0,0,487.63,379.75Z" transform="translate(0 0)"></path>
  <path class="cls-1" d="M509.49,359.43a6.74,6.74,0,0,1,3.58,1,4.51,4.51,0,0,1,1.93,3.4,18.44,18.44,0,0,1,5.38-3.52,19.2,19.2,0,0,1,8-1.56c3.91,0,6.89.87,9,2.59a12,12,0,0,1,4.05,6.46,18.89,18.89,0,0,1,.51,3.83c.06,1.4.09,2.77.09,4.09v24.45h-7.32V376c0-1.09,0-2.13,0-3.14a9.66,9.66,0,0,0-.48-2.8,5.66,5.66,0,0,0-2.49-3.44,10.59,10.59,0,0,0-5.6-1.21,14,14,0,0,0-7.84,1.94q-2.92,1.94-2.92,4.18v28.67H508V359.52h.43c.12,0,.27,0,.47,0A4,4,0,0,1,509.49,359.43Z" transform="translate(0 0)"></path>
  <path class="cls-1" d="M557.71,395a12.58,12.58,0,0,1-.74-3.57c-.08-1.29-.13-2.57-.13-3.83v-40.3h.52a3.5,3.5,0,0,0,.48,0,3.69,3.69,0,0,1,.56,0,6.88,6.88,0,0,1,4,1.2q1.72,1.2,1.72,4.36v6.84H577v6.28H564.16V388.1q0,7.06,5.6,7.06a6.88,6.88,0,0,0,2.58-.47,10.7,10.7,0,0,0,2.16-1.12,13.59,13.59,0,0,0,1.59-1.25,5.83,5.83,0,0,0,.81-.86,24.24,24.24,0,0,1,1.77,2.49,4.51,4.51,0,0,1,.73,2.33,2.64,2.64,0,0,1-.77,1.68,8.2,8.2,0,0,1-2.15,1.68,14.23,14.23,0,0,1-3.41,1.29,18,18,0,0,1-4.43.52,13.13,13.13,0,0,1-7.15-1.72A9.38,9.38,0,0,1,557.71,395Z" transform="translate(0 0)"></path>
  <path class="cls-1" d="M606.78,395.16a16.11,16.11,0,0,0,4.35-.52,13.34,13.34,0,0,0,3.18-1.29,14.18,14.18,0,0,0,2.28-1.59,16.19,16.19,0,0,0,1.55-1.5,17.32,17.32,0,0,1,1.68,2.58,5,5,0,0,1,.73,2.15,2.84,2.84,0,0,1-.43,1.44,5.52,5.52,0,0,1-1.46,1.52,17.31,17.31,0,0,1-5.08,2.49,26.86,26.86,0,0,1-15.11-.15,16.32,16.32,0,0,1-6.27-3.75,18,18,0,0,1-4.26-6.76,29.25,29.25,0,0,1-1.56-10.2A25.09,25.09,0,0,1,588,370.2a18.77,18.77,0,0,1,4.17-6.5A16.21,16.21,0,0,1,598,360a20,20,0,0,1,6.84-1.21,17.7,17.7,0,0,1,7.54,1.47,14.24,14.24,0,0,1,5.12,3.91,16.45,16.45,0,0,1,2.93,5.69,23.58,23.58,0,0,1,.94,6.67c0,.8,0,1.62,0,2.45a21.32,21.32,0,0,1-.21,2.37H594q.26,6.26,3.31,10.06T606.78,395.16Zm7.32-19.37a18.21,18.21,0,0,0-.48-4.3A9.51,9.51,0,0,0,612,368a7.67,7.67,0,0,0-3-2.37,10.66,10.66,0,0,0-4.5-.86,9.85,9.85,0,0,0-7.33,2.93,12.31,12.31,0,0,0-3.21,8.09Z" transform="translate(0 0)"></path>
  <path class="cls-1" d="M635.19,359.43a6.7,6.7,0,0,1,3.57,1,4.52,4.52,0,0,1,1.94,3.4,18.3,18.3,0,0,1,5.38-3.52,19.17,19.17,0,0,1,8-1.56c3.9,0,6.89.87,9,2.59a11.83,11.83,0,0,1,4,6.46,18.86,18.86,0,0,1,.52,3.83c.05,1.4.08,2.77.08,4.09v24.45h-7.31V376c0-1.09,0-2.13,0-3.14a9.66,9.66,0,0,0-.47-2.8,5.68,5.68,0,0,0-2.5-3.44,10.55,10.55,0,0,0-5.59-1.21,14,14,0,0,0-7.84,1.94q-2.93,1.94-2.92,4.18v28.67h-7.32V359.52h.43l.47,0A3.87,3.87,0,0,1,635.19,359.43Z" transform="translate(0 0)"></path>
  <path class="cls-1" d="M683.4,395a12.93,12.93,0,0,1-.73-3.57c-.09-1.29-.13-2.57-.13-3.83v-40.3h.52a3.26,3.26,0,0,0,.47,0,3.78,3.78,0,0,1,.56,0,6.91,6.91,0,0,1,4,1.2c1.14.8,1.72,2.25,1.72,4.36v6.84h12.83v6.28H689.86V388.1q0,7.06,5.59,7.06a7,7,0,0,0,2.59-.47,10.62,10.62,0,0,0,2.15-1.12,13.59,13.59,0,0,0,1.59-1.25,6.77,6.77,0,0,0,.82-.86,22.63,22.63,0,0,1,1.76,2.49,4.53,4.53,0,0,1,.74,2.33,2.66,2.66,0,0,1-.78,1.68,8.2,8.2,0,0,1-2.15,1.68,14.14,14.14,0,0,1-3.4,1.29,18.13,18.13,0,0,1-4.43.52,13.11,13.11,0,0,1-7.15-1.72A9.4,9.4,0,0,1,683.4,395Z" transform="translate(0 0)"></path>
  <path class="cls-1" d="M24.61,112.2q0-10.32-5.28-14.11a21.46,21.46,0,0,0-12.86-3.8,12.48,12.48,0,0,0-1.76.13,9.87,9.87,0,0,1-1.48.14H1.6V286.44H24.06V275.61a32.45,32.45,0,0,0,4.06,4.47,31.69,31.69,0,0,0,7,4.87A49.45,49.45,0,0,0,59,290.5a59.63,59.63,0,0,0,18.94-3.25,45.72,45.72,0,0,0,17.73-11.1q8-7.84,13-21.24t5-33.69q0-17.86-4.19-30.18T98.08,171a43.14,43.14,0,0,0-16.51-11.23,56,56,0,0,0-19.89-3.51q-13.8,0-22.73,4.25a50.08,50.08,0,0,0-14.34,9.74V112.2ZM80.49,258.33Q72,270.75,55.19,270.74a34.48,34.48,0,0,1-10.69-1.61,52.47,52.47,0,0,1-8.93-3.78,32.18,32.18,0,0,1-6.63-4.72,39,39,0,0,1-4.33-4.73V195.18q0-7.83,8.39-13.49T54.65,176q9.74,0,16.37,3.64a28.49,28.49,0,0,1,10.55,9.85,44.16,44.16,0,0,1,5.69,14.85A92,92,0,0,1,89,222.7q0,23.24-8.53,35.63Zm87-145.9q0-10.31-5.28-14.22a21,21,0,0,0-12.86-3.92,12.35,12.35,0,0,0-1.75.13,10,10,0,0,1-1.49.14h-1.63V260.19c0,3.24.14,6.54.41,9.88a24.47,24.47,0,0,0,2.43,9.06,15.45,15.45,0,0,0,6.23,6.5q4.19,2.43,12,2.44a66.57,66.57,0,0,0,8.26-.54,37.71,37.71,0,0,0,6.63-1.36v-9.74a22.55,22.55,0,0,1-7.44-.95,7.3,7.3,0,0,1-3.79-2.84,10.49,10.49,0,0,1-1.49-4.74c-.19-1.89-.27-4.19-.27-6.9V112.43Zm78.08,157.23a23.61,23.61,0,0,1-8.8-4.07,15.51,15.51,0,0,1-6.09-9.5,75.58,75.58,0,0,1-1.49-16.82V175.52q0-10.31-5.28-14.1a21.41,21.41,0,0,0-12.85-3.8,14.18,14.18,0,0,0-1.76.13,9.87,9.87,0,0,1-1.49.14H206.2v81.19q0,8.4.81,17.45a41.39,41.39,0,0,0,5,16.65,32.22,32.22,0,0,0,12.85,12.45q8.65,4.86,24.36,4.87,15.42,0,25.17-4.81t15.15-10.94v11.69h23V175.75q0-10.29-5.28-14.21a21,21,0,0,0-12.86-3.92,14.18,14.18,0,0,0-1.76.13,9.76,9.76,0,0,1-1.49.14h-1.62v93.32a10.82,10.82,0,0,1-2.43,6.1,27.29,27.29,0,0,1-6.77,6.38,41.22,41.22,0,0,1-10.42,5,41.93,41.93,0,0,1-13.39,2,49.52,49.52,0,0,1-11-1.08Zm131.79-10.88q-9.62-12-10.42-31.61H452.2a65.43,65.43,0,0,0,.68-7.44c.09-2.61.13-5.19.13-7.71a73.93,73.93,0,0,0-3-21,51,51,0,0,0-9.19-17.86,44.47,44.47,0,0,0-16.11-12.31q-9.89-4.6-23.68-4.6a62.55,62.55,0,0,0-21.51,3.78A51.16,51.16,0,0,0,361,171.83a59,59,0,0,0-13.13,20.43q-5,12.45-5,29.5,0,18.94,4.92,32.07t13.4,21.24a50.85,50.85,0,0,0,19.7,11.78,77.08,77.08,0,0,0,23.95,3.65q13.8,0,23.55-3.15a54.72,54.72,0,0,0,16-7.83,17.07,17.07,0,0,0,4.6-4.8,9,9,0,0,0,1.36-4.52c0-1.62-.78-3.88-2.3-6.77a55.88,55.88,0,0,0-5.28-8.11,50.8,50.8,0,0,1-4.87,4.73,47.91,47.91,0,0,1-7.17,5,43,43,0,0,1-10,4.06A51.23,51.23,0,0,1,407,270.74q-20,0-29.64-12ZM367,209.85q1.08-16.24,10.11-25.44t23-9.2a33.3,33.3,0,0,1,14.14,2.71,23.73,23.73,0,0,1,9.3,7.44,29.94,29.94,0,0,1,5,11A58.24,58.24,0,0,1,430,209.85Zm199.18,76.59h23V209.58q0-6.22-.27-12.86a60,60,0,0,0-1.63-12,35.81,35.81,0,0,0-12.85-19.89,38.79,38.79,0,0,0-12.18-6.22,54.36,54.36,0,0,0-16.64-2.3,65.15,65.15,0,0,0-23,4,44.58,44.58,0,0,0-17.86,11.91V112.15q0-10.28-5.28-14.07a21.42,21.42,0,0,0-12.85-3.79,12.48,12.48,0,0,0-1.76.13,10,10,0,0,1-1.49.14H482V286.44h23V196.59a12.29,12.29,0,0,1,2.44-7,22.12,22.12,0,0,1,6.9-6.22,43,43,0,0,1,10.82-4.47,52.31,52.31,0,0,1,13.94-1.76q11.64,0,17.59,3.79a17.87,17.87,0,0,1,7.85,10.83,30.47,30.47,0,0,1,1.49,8.8c.09,3.15.13,6.45.13,9.87v76.05Zm169.15-89.31a59.08,59.08,0,0,0-10.29-21,50.54,50.54,0,0,0-18.13-14.48q-11.1-5.42-27.06-5.41-15.16,0-26.39,5.41a55.52,55.52,0,0,0-18.81,14.48,60.79,60.79,0,0,0-11.36,21.24,85.94,85.94,0,0,0-3.79,25.71A101.16,101.16,0,0,0,622.69,249,60.33,60.33,0,0,0,633,270.47a49.68,49.68,0,0,0,18.27,14.62q11.22,5.4,27.46,5.41t27.61-5.68a51.93,51.93,0,0,0,18.54-15.16,61.62,61.62,0,0,0,10.42-21.78,100.14,100.14,0,0,0,3.25-25.58,95.5,95.5,0,0,0-3.25-25.17Zm-22.34,42.22a49.29,49.29,0,0,1-5.29,15.56,31.1,31.1,0,0,1-10.87,11.37q-7.06,4.47-17.93,4.46-10.61,0-17.39-4.46a34.2,34.2,0,0,1-10.86-11.37A45.49,45.49,0,0,1,645,239.35a99.78,99.78,0,0,1-1.5-17,79.13,79.13,0,0,1,1.77-16.64,46.64,46.64,0,0,1,5.84-14.89,31.31,31.31,0,0,1,11-10.69q6.93-4.05,17.25-4.06,10.88,0,17.66,4.06a29.35,29.35,0,0,1,10.6,10.69,46.15,46.15,0,0,1,5.29,14.89,92.86,92.86,0,0,1,1.5,16.64,99.78,99.78,0,0,1-1.5,17Zm94.19,30.31a23.49,23.49,0,0,1-8.79-4.07,15.47,15.47,0,0,1-6.09-9.5,75,75,0,0,1-1.49-16.82V175.52q0-10.31-5.28-14.1a21.45,21.45,0,0,0-12.85-3.8,14.34,14.34,0,0,0-1.77.13,9.76,9.76,0,0,1-1.48.14h-1.63v81.19q0,8.4.82,17.45a41.54,41.54,0,0,0,5,16.65,32.25,32.25,0,0,0,12.86,12.45q8.66,4.86,24.35,4.87,15.44,0,25.18-4.81t15.15-10.94v11.69h23V175.75q0-10.29-5.28-14.21A21,21,0,0,0,856,157.62a14.18,14.18,0,0,0-1.76.13,9.87,9.87,0,0,1-1.48.14h-1.63v93.32a10.77,10.77,0,0,1-2.44,6.1,27.07,27.07,0,0,1-6.76,6.38,41.39,41.39,0,0,1-10.42,5,42,42,0,0,1-13.4,2,49.65,49.65,0,0,1-11-1.08ZM967.07,158.43a76.52,76.52,0,0,0-18.81-2.16,63.43,63.43,0,0,0-17.18,2.3,48.81,48.81,0,0,0-14.75,6.76A32.82,32.82,0,0,0,906,176.7a32.42,32.42,0,0,0-3.78,15.83,33.68,33.68,0,0,0,3.37,15.7,32.41,32.41,0,0,0,8.89,10.82,45,45,0,0,0,12.67,6.9,109.2,109.2,0,0,0,15,4.2q5.13,1.08,10.11,2.57a39.3,39.3,0,0,1,9,3.92,20.14,20.14,0,0,1,6.47,6.09,16.55,16.55,0,0,1,2.42,9.34,18.07,18.07,0,0,1-2.28,9.47,17.09,17.09,0,0,1-5.94,5.95,26,26,0,0,1-8.22,3.11,45.87,45.87,0,0,1-9.44.95,47.71,47.71,0,0,1-12.13-1.48,63,63,0,0,1-10.37-3.66,48,48,0,0,1-8.09-4.6q-3.37-2.43-5.26-4.06-3,4.88-4.85,8.66a16.39,16.39,0,0,0-1.89,7.31,8.43,8.43,0,0,0,2.71,5.82q2.7,2.83,9.47,5.55a66.11,66.11,0,0,0,12.72,3.65,89.1,89.1,0,0,0,17.06,1.49,68.7,68.7,0,0,0,18.8-2.57,48.75,48.75,0,0,0,15.83-7.58,37.72,37.72,0,0,0,10.83-12.45,35.86,35.86,0,0,0,4.06-17.46q0-10-3.38-16.77a32.16,32.16,0,0,0-9.2-11.24,51.88,51.88,0,0,0-13.4-7.3,127.42,127.42,0,0,0-15.7-4.74,92.2,92.2,0,0,1-19.08-6.49c-5.14-2.53-7.71-6.67-7.71-12.46a13.15,13.15,0,0,1,2.43-8.11,16.48,16.48,0,0,1,6.1-5,28.31,28.31,0,0,1,7.84-2.43,48.84,48.84,0,0,1,7.72-.68,43.19,43.19,0,0,1,18.8,4.19,50.11,50.11,0,0,1,14.07,9.79l1.94,2.07a91.14,91.14,0,0,0,4.83-10,19.91,19.91,0,0,0,1.49-6.91,8.5,8.5,0,0,0-1.89-5q-1.9-2.56-7.31-5.55a54.76,54.76,0,0,0-13.67-5.14Zm82.54,100.35q-9.6-12-10.41-31.61h85.24a63.22,63.22,0,0,0,.68-7.44c.09-2.61.14-5.19.14-7.71a74.29,74.29,0,0,0-3-21,51,51,0,0,0-9.2-17.86,44.44,44.44,0,0,0-16.1-12.31q-9.88-4.6-23.69-4.6a62.55,62.55,0,0,0-21.51,3.78,51.16,51.16,0,0,0-18.54,11.78,59.16,59.16,0,0,0-13.13,20.43q-5,12.45-5,29.5,0,18.94,4.93,32.07t13.39,21.24a50.82,50.82,0,0,0,19.71,11.78,77,77,0,0,0,23.94,3.65q13.82,0,23.55-3.15a54.92,54.92,0,0,0,16-7.83,17.16,17.16,0,0,0,4.59-4.8,8.92,8.92,0,0,0,1.36-4.52q0-2.43-2.3-6.77a55.06,55.06,0,0,0-5.28-8.11,48.54,48.54,0,0,1-4.87,4.73,47.91,47.91,0,0,1-7.17,5,43.13,43.13,0,0,1-10,4.06,51.3,51.3,0,0,1-13.67,1.62q-20,0-29.64-12Zm-10.41-48.93q1.07-16.24,10.1-25.44t23-9.2a33.38,33.38,0,0,1,14.15,2.71,23.87,23.87,0,0,1,9.3,7.44,29.94,29.94,0,0,1,5,11,58.24,58.24,0,0,1,1.49,13.53Z" transform="translate(0 0)"></path>
  <polygon class="cls-2" points="1332.86 92.23 1248.96 0 1187.76 91.78 1201.34 190.22 1180.09 227.7 1224.86 209.34 1332.86 198.1 1332.86 92.23 1332.86 92.23"></polygon>
</svg>
